<svg width="111" height="35" viewBox="0 0 111 35" fill="none" xmlns="http://www.w3.org/2000/svg">
<path d="M16.918 12.636C18.3993 12.636 19.5653 13.098 20.416 14.022C21.2813 14.9313 21.714 16.2293 21.714 17.916V25H18.634V18.268C18.634 17.3293 18.392 16.6107 17.908 16.112C17.4387 15.5987 16.786 15.342 15.95 15.342C15.0847 15.342 14.3953 15.6133 13.882 16.156C13.3687 16.6987 13.112 17.4907 13.112 18.532V25H10.032V18.268C10.032 17.3293 9.79 16.6107 9.306 16.112C8.83667 15.5987 8.184 15.342 7.348 15.342C6.48267 15.342 5.79333 15.6133 5.28 16.156C4.76667 16.6987 4.51 17.4907 4.51 18.532V25H1.408V12.812H4.51V15.122C4.83267 14.33 5.33867 13.7213 6.028 13.296C6.732 12.856 7.546 12.636 8.47 12.636C9.45267 12.636 10.3033 12.8707 11.022 13.34C11.7553 13.8093 12.3053 14.484 12.672 15.364C13.0533 14.528 13.618 13.868 14.366 13.384C15.1287 12.8853 15.9793 12.636 16.918 12.636ZM29.2133 12.658C30.2399 12.658 31.1199 12.9 31.8533 13.384C32.5866 13.868 33.1073 14.5207 33.4153 15.342V12.812H36.4953V25H33.4153V22.448C33.1073 23.2693 32.5866 23.9293 31.8533 24.428C31.1199 24.912 30.2399 25.154 29.2133 25.154C28.1866 25.154 27.2626 24.9047 26.4413 24.406C25.6199 23.9073 24.9746 23.1887 24.5053 22.25C24.0506 21.2967 23.8233 20.182 23.8233 18.906C23.8233 17.63 24.0506 16.5227 24.5053 15.584C24.9746 14.6307 25.6199 13.9047 26.4413 13.406C27.2626 12.9073 28.1866 12.658 29.2133 12.658ZM30.1813 15.364C29.2133 15.364 28.4359 15.6793 27.8493 16.31C27.2626 16.9407 26.9693 17.806 26.9693 18.906C26.9693 20.006 27.2626 20.8713 27.8493 21.502C28.4359 22.118 29.2133 22.426 30.1813 22.426C31.1199 22.426 31.8899 22.1107 32.4913 21.48C33.1073 20.8347 33.4153 19.9767 33.4153 18.906C33.4153 17.8207 33.1073 16.9627 32.4913 16.332C31.8899 15.6867 31.1199 15.364 30.1813 15.364ZM54.8164 12.636C56.2978 12.636 57.4638 13.098 58.3144 14.022C59.1798 14.9313 59.6124 16.2293 59.6124 17.916V25H56.5324V18.268C56.5324 17.3293 56.2904 16.6107 55.8064 16.112C55.3371 15.5987 54.6844 15.342 53.8484 15.342C52.9831 15.342 52.2938 15.6133 51.7804 16.156C51.2671 16.6987 51.0104 17.4907 51.0104 18.532V25H47.9304V18.268C47.9304 17.3293 47.6884 16.6107 47.2044 16.112C46.7351 15.5987 46.0824 15.342 45.2464 15.342C44.3811 15.342 43.6918 15.6133 43.1784 16.156C42.6651 16.6987 42.4084 17.4907 42.4084 18.532V25H39.3064V12.812H42.4084V15.122C42.7311 14.33 43.2371 13.7213 43.9264 13.296C44.6304 12.856 45.4444 12.636 46.3684 12.636C47.3511 12.636 48.2018 12.8707 48.9204 13.34C49.6538 13.8093 50.2038 14.484 50.5704 15.364C50.9518 14.528 51.5164 13.868 52.2644 13.384C53.0271 12.8853 53.8778 12.636 54.8164 12.636ZM67.1117 12.658C68.1384 12.658 69.0184 12.9 69.7517 13.384C70.485 13.868 71.0057 14.5207 71.3137 15.342V12.812H74.3937V25H71.3137V22.448C71.0057 23.2693 70.485 23.9293 69.7517 24.428C69.0184 24.912 68.1384 25.154 67.1117 25.154C66.085 25.154 65.161 24.9047 64.3397 24.406C63.5184 23.9073 62.873 23.1887 62.4037 22.25C61.949 21.2967 61.7217 20.182 61.7217 18.906C61.7217 17.63 61.949 16.5227 62.4037 15.584C62.873 14.6307 63.5184 13.9047 64.3397 13.406C65.161 12.9073 66.085 12.658 67.1117 12.658ZM68.0797 15.364C67.1117 15.364 66.3344 15.6793 65.7477 16.31C65.161 16.9407 64.8677 17.806 64.8677 18.906C64.8677 20.006 65.161 20.8713 65.7477 21.502C66.3344 22.118 67.1117 22.426 68.0797 22.426C69.0184 22.426 69.7884 22.1107 70.3897 21.48C71.0057 20.8347 71.3137 19.9767 71.3137 18.906C71.3137 17.8207 71.0057 16.9627 70.3897 16.332C69.7884 15.6867 69.0184 15.364 68.0797 15.364ZM92.7149 12.636C94.1962 12.636 95.3622 13.098 96.2129 14.022C97.0782 14.9313 97.5109 16.2293 97.5109 17.916V25H94.4309V18.268C94.4309 17.3293 94.1889 16.6107 93.7049 16.112C93.2355 15.5987 92.5829 15.342 91.7469 15.342C90.8815 15.342 90.1922 15.6133 89.6789 16.156C89.1655 16.6987 88.9089 17.4907 88.9089 18.532V25H85.8289V18.268C85.8289 17.3293 85.5869 16.6107 85.1029 16.112C84.6335 15.5987 83.9809 15.342 83.1449 15.342C82.2795 15.342 81.5902 15.6133 81.0769 16.156C80.5635 16.6987 80.3069 17.4907 80.3069 18.532V25H77.2049V12.812H80.3069V15.122C80.6295 14.33 81.1355 13.7213 81.8249 13.296C82.5289 12.856 83.3429 12.636 84.2669 12.636C85.2495 12.636 86.1002 12.8707 86.8189 13.34C87.5522 13.8093 88.1022 14.484 88.4689 15.364C88.8502 14.528 89.4149 13.868 90.1629 13.384C90.9255 12.8853 91.7762 12.636 92.7149 12.636Z" fill="white"/>
<path d="M111 10.135C111 9.28721 110.011 8.82405 109.36 9.36682L105.713 12.406C105.485 12.596 105.353 12.8775 105.353 13.1743V15.9412C105.353 16.4935 105.801 16.9412 106.353 16.9412H110C110.552 16.9412 111 16.4935 111 15.9412V10.135Z" fill="#FFC84A"/>
<path d="M103 10.135C103 9.28721 103.989 8.82405 104.64 9.36682L108.287 12.406C108.515 12.596 108.647 12.8775 108.647 13.1743V15.9412C108.647 16.4935 108.199 16.9412 107.647 16.9412H104C103.448 16.9412 103 16.4935 103 15.9412V10.135Z" fill="#FF6D4A"/>
<mask id="mask0" mask-type="alpha" maskUnits="userSpaceOnUse" x="103" y="9" width="6" height="8">
<path d="M103 10.135C103 9.28721 103.989 8.82405 104.64 9.36682L108.287 12.406C108.515 12.596 108.647 12.8775 108.647 13.1743V15.9412C108.647 16.4935 108.199 16.9412 107.647 16.9412H104C103.448 16.9412 103 16.4935 103 15.9412V10.135Z" fill="#257CFF"/>
</mask>
<g mask="url(#mask0)">
<path d="M111 10.135C111 9.28721 110.011 8.82405 109.36 9.36682L105.713 12.406C105.485 12.596 105.353 12.8775 105.353 13.1743V15.9412C105.353 16.4935 105.801 16.9412 106.353 16.9412H110C110.552 16.9412 111 16.4935 111 15.9412V10.135Z" fill="white"/>
</g>
</svg>
